<mxfile host="app.diagrams.net" modified="2023-12-18T19:21:45.133Z" agent="Mozilla/5.0 (Macintosh; Intel Mac OS X 10_15_7) AppleWebKit/537.36 (KHTML, like Gecko) Chrome/120.0.0.0 Safari/537.36" etag="lmFhRGlogLI_8k58F7m7" version="22.1.11" type="device">
  <diagram name="Page-1" id="9IHGsyed1ngbkckclf1x">
    <mxGraphModel dx="1363" dy="761" grid="1" gridSize="10" guides="1" tooltips="1" connect="1" arrows="1" fold="1" page="1" pageScale="1" pageWidth="827" pageHeight="1169" math="0" shadow="0">
      <root>
        <mxCell id="0" />
        <mxCell id="1" parent="0" />
        <mxCell id="-mTPZF1IXxDro11lRGje-3" style="edgeStyle=orthogonalEdgeStyle;rounded=0;orthogonalLoop=1;jettySize=auto;html=1;entryX=0.5;entryY=0;entryDx=0;entryDy=0;" edge="1" parent="1" source="-mTPZF1IXxDro11lRGje-1" target="-mTPZF1IXxDro11lRGje-2">
          <mxGeometry relative="1" as="geometry" />
        </mxCell>
        <mxCell id="-mTPZF1IXxDro11lRGje-1" value="" style="ellipse;whiteSpace=wrap;html=1;aspect=fixed;fillColor=#000000;" vertex="1" parent="1">
          <mxGeometry x="160" y="80" width="30" height="30" as="geometry" />
        </mxCell>
        <mxCell id="-mTPZF1IXxDro11lRGje-7" style="edgeStyle=orthogonalEdgeStyle;rounded=0;orthogonalLoop=1;jettySize=auto;html=1;entryX=0;entryY=0.5;entryDx=0;entryDy=0;" edge="1" parent="1" source="-mTPZF1IXxDro11lRGje-2" target="-mTPZF1IXxDro11lRGje-6">
          <mxGeometry relative="1" as="geometry" />
        </mxCell>
        <mxCell id="-mTPZF1IXxDro11lRGje-2" value="Notification monitoring" style="swimlane;whiteSpace=wrap;html=1;" vertex="1" parent="1">
          <mxGeometry x="75" y="210" width="200" height="200" as="geometry" />
        </mxCell>
        <mxCell id="-mTPZF1IXxDro11lRGje-5" value="do/check notification type" style="text;html=1;align=center;verticalAlign=middle;resizable=0;points=[];autosize=1;strokeColor=none;fillColor=none;" vertex="1" parent="-mTPZF1IXxDro11lRGje-2">
          <mxGeometry x="20" y="60" width="160" height="30" as="geometry" />
        </mxCell>
        <mxCell id="-mTPZF1IXxDro11lRGje-4" value="[new notification]" style="text;html=1;align=center;verticalAlign=middle;resizable=0;points=[];autosize=1;strokeColor=none;fillColor=none;" vertex="1" parent="1">
          <mxGeometry x="185" y="138" width="110" height="30" as="geometry" />
        </mxCell>
        <mxCell id="-mTPZF1IXxDro11lRGje-11" style="edgeStyle=orthogonalEdgeStyle;rounded=0;orthogonalLoop=1;jettySize=auto;html=1;entryX=0.5;entryY=0;entryDx=0;entryDy=0;" edge="1" parent="1" source="-mTPZF1IXxDro11lRGje-6">
          <mxGeometry relative="1" as="geometry">
            <mxPoint x="660" y="530" as="targetPoint" />
          </mxGeometry>
        </mxCell>
        <mxCell id="-mTPZF1IXxDro11lRGje-16" style="edgeStyle=orthogonalEdgeStyle;rounded=0;orthogonalLoop=1;jettySize=auto;html=1;entryX=0;entryY=0.5;entryDx=0;entryDy=0;" edge="1" parent="1" source="-mTPZF1IXxDro11lRGje-6" target="-mTPZF1IXxDro11lRGje-15">
          <mxGeometry relative="1" as="geometry" />
        </mxCell>
        <mxCell id="-mTPZF1IXxDro11lRGje-6" value="User profile settings" style="swimlane;whiteSpace=wrap;html=1;" vertex="1" parent="1">
          <mxGeometry x="560" y="210" width="200" height="200" as="geometry" />
        </mxCell>
        <mxCell id="-mTPZF1IXxDro11lRGje-9" value="do/check if notification applicable" style="text;html=1;align=center;verticalAlign=middle;resizable=0;points=[];autosize=1;strokeColor=none;fillColor=none;" vertex="1" parent="-mTPZF1IXxDro11lRGje-6">
          <mxGeometry y="60" width="200" height="30" as="geometry" />
        </mxCell>
        <mxCell id="-mTPZF1IXxDro11lRGje-8" value="get user notification settings" style="text;html=1;align=center;verticalAlign=middle;resizable=0;points=[];autosize=1;strokeColor=none;fillColor=none;" vertex="1" parent="1">
          <mxGeometry x="340" y="278" width="170" height="30" as="geometry" />
        </mxCell>
        <mxCell id="-mTPZF1IXxDro11lRGje-12" value="[not applicable]" style="text;html=1;align=center;verticalAlign=middle;resizable=0;points=[];autosize=1;strokeColor=none;fillColor=none;" vertex="1" parent="1">
          <mxGeometry x="660" y="450" width="100" height="30" as="geometry" />
        </mxCell>
        <mxCell id="-mTPZF1IXxDro11lRGje-22" style="edgeStyle=orthogonalEdgeStyle;rounded=0;orthogonalLoop=1;jettySize=auto;html=1;entryX=0;entryY=0.5;entryDx=0;entryDy=0;" edge="1" parent="1" source="-mTPZF1IXxDro11lRGje-13" target="-mTPZF1IXxDro11lRGje-19">
          <mxGeometry relative="1" as="geometry" />
        </mxCell>
        <mxCell id="-mTPZF1IXxDro11lRGje-13" value="" style="swimlane;startSize=0;" vertex="1" parent="1">
          <mxGeometry x="560" y="530" width="210" height="110" as="geometry" />
        </mxCell>
        <mxCell id="-mTPZF1IXxDro11lRGje-14" value="User not notified" style="text;html=1;align=center;verticalAlign=middle;resizable=0;points=[];autosize=1;strokeColor=none;fillColor=none;" vertex="1" parent="-mTPZF1IXxDro11lRGje-13">
          <mxGeometry x="50" y="40" width="110" height="30" as="geometry" />
        </mxCell>
        <mxCell id="-mTPZF1IXxDro11lRGje-21" style="edgeStyle=orthogonalEdgeStyle;rounded=0;orthogonalLoop=1;jettySize=auto;html=1;entryX=0.5;entryY=0;entryDx=0;entryDy=0;" edge="1" parent="1" source="-mTPZF1IXxDro11lRGje-15" target="-mTPZF1IXxDro11lRGje-19">
          <mxGeometry relative="1" as="geometry" />
        </mxCell>
        <mxCell id="-mTPZF1IXxDro11lRGje-27" style="edgeStyle=orthogonalEdgeStyle;rounded=0;orthogonalLoop=1;jettySize=auto;html=1;entryX=0;entryY=0.5;entryDx=0;entryDy=0;" edge="1" parent="1" source="-mTPZF1IXxDro11lRGje-15" target="-mTPZF1IXxDro11lRGje-24">
          <mxGeometry relative="1" as="geometry" />
        </mxCell>
        <mxCell id="-mTPZF1IXxDro11lRGje-15" value="Reviewing notification" style="swimlane;whiteSpace=wrap;html=1;" vertex="1" parent="1">
          <mxGeometry x="930" y="210" width="200" height="200" as="geometry" />
        </mxCell>
        <mxCell id="-mTPZF1IXxDro11lRGje-18" value="do/student review&#39;s notification" style="text;html=1;align=center;verticalAlign=middle;resizable=0;points=[];autosize=1;strokeColor=none;fillColor=none;" vertex="1" parent="-mTPZF1IXxDro11lRGje-15">
          <mxGeometry x="5" y="60" width="190" height="30" as="geometry" />
        </mxCell>
        <mxCell id="-mTPZF1IXxDro11lRGje-17" value="[applicable]/send notification" style="text;html=1;align=center;verticalAlign=middle;resizable=0;points=[];autosize=1;strokeColor=none;fillColor=none;" vertex="1" parent="1">
          <mxGeometry x="760" y="278" width="170" height="30" as="geometry" />
        </mxCell>
        <mxCell id="-mTPZF1IXxDro11lRGje-19" value="" style="ellipse;whiteSpace=wrap;html=1;aspect=fixed;" vertex="1" parent="1">
          <mxGeometry x="1010" y="565" width="40" height="40" as="geometry" />
        </mxCell>
        <mxCell id="-mTPZF1IXxDro11lRGje-20" value="" style="ellipse;whiteSpace=wrap;html=1;aspect=fixed;fillColor=#000000;" vertex="1" parent="1">
          <mxGeometry x="1015" y="570" width="30" height="30" as="geometry" />
        </mxCell>
        <mxCell id="-mTPZF1IXxDro11lRGje-23" value="[No response]" style="text;html=1;align=center;verticalAlign=middle;resizable=0;points=[];autosize=1;strokeColor=none;fillColor=none;" vertex="1" parent="1">
          <mxGeometry x="1030" y="468" width="100" height="30" as="geometry" />
        </mxCell>
        <mxCell id="-mTPZF1IXxDro11lRGje-29" style="edgeStyle=orthogonalEdgeStyle;rounded=0;orthogonalLoop=1;jettySize=auto;html=1;entryX=1;entryY=0.5;entryDx=0;entryDy=0;" edge="1" parent="1" source="-mTPZF1IXxDro11lRGje-24" target="-mTPZF1IXxDro11lRGje-19">
          <mxGeometry relative="1" as="geometry">
            <Array as="points">
              <mxPoint x="1400" y="585" />
            </Array>
          </mxGeometry>
        </mxCell>
        <mxCell id="-mTPZF1IXxDro11lRGje-24" value="" style="swimlane;startSize=0;" vertex="1" parent="1">
          <mxGeometry x="1300" y="255" width="200" height="110" as="geometry" />
        </mxCell>
        <mxCell id="-mTPZF1IXxDro11lRGje-25" value="Deliver response" style="text;html=1;align=center;verticalAlign=middle;resizable=0;points=[];autosize=1;strokeColor=none;fillColor=none;" vertex="1" parent="-mTPZF1IXxDro11lRGje-24">
          <mxGeometry x="45" y="30" width="110" height="30" as="geometry" />
        </mxCell>
        <mxCell id="-mTPZF1IXxDro11lRGje-28" value="[Student responded]" style="text;html=1;align=center;verticalAlign=middle;resizable=0;points=[];autosize=1;strokeColor=none;fillColor=none;" vertex="1" parent="1">
          <mxGeometry x="1150" y="278" width="130" height="30" as="geometry" />
        </mxCell>
        <mxCell id="-mTPZF1IXxDro11lRGje-30" value="[Response delivered]" style="text;html=1;align=center;verticalAlign=middle;resizable=0;points=[];autosize=1;strokeColor=none;fillColor=none;" vertex="1" parent="1">
          <mxGeometry x="1150" y="555" width="140" height="30" as="geometry" />
        </mxCell>
      </root>
    </mxGraphModel>
  </diagram>
</mxfile>
